<svg xmlns="http://www.w3.org/2000/svg" viewBox="0 0 387.36 440.56"><defs><style>.cls-1{fill:#171a32;}</style></defs><title>icons</title><g id="Lager_6" data-name="Lager 6"><path class="cls-1" d="M342.79,6.5H45.53c-10.84,0-19.66,9.93-19.66,22.14V370.36c0,12.21,8.82,22.14,19.66,22.14H222.18V372.37H45.53a1.94,1.94,0,0,1-1.79-2V28.64a1.94,1.94,0,0,1,1.79-2H342.79a1.94,1.94,0,0,1,1.79,2V370.36a1.94,1.94,0,0,1-1.79,2H307.24V392.5h35.55c10.84,0,19.66-9.93,19.66-22.14V28.64C362.45,16.43,353.63,6.5,342.79,6.5Z"/><path class="cls-1" d="M238.51,321.14a63.72,63.72,0,0,0,55.17,0v51.28h20V306A64.33,64.33,0,0,0,330,263c0-35.54-28.64-64.36-64-64.36s-64,28.81-64,64.36a64.34,64.34,0,0,0,16.43,43.05v66.28h20ZM222.08,263A44,44,0,1,1,310,263h0a44.27,44.27,0,0,1-16.33,34.37,43.63,43.63,0,0,1-55.17.08A44.27,44.27,0,0,1,222.08,263Z"/><path class="cls-1" d="M293.68,412l-13.47-13.6-5.89-5.95H257.71l-5.9,6c-.09.09-6.6,6.72-13.31,13.39V392.5h-20v29.79c0,9.33,8.57,15.64,16.61,15.64a12.86,12.86,0,0,0,9.08-3.5c8.52-8.21,21.84-21.78,21.84-21.78s17.22,17.38,21.79,22c1.75,1.76,5.94,3.4,10.45,3.4,7.29,0,15.4-4.29,15.4-19.3V392.5h-20Z"/><polygon class="cls-1" points="257.71 392.5 274.32 392.5 265.98 384.07 257.71 392.5"/><path class="cls-1" d="M293.68,372.37V392.5h20V372.37Z"/><path class="cls-1" d="M238.51,372.37h-20V392.5h20Z"/><rect class="cls-1" x="67.94" y="78.46" width="188.17" height="20.12" rx="10" ry="10"/><rect class="cls-1" x="67.94" y="141.97" width="150.16" height="20.12" rx="10" ry="10"/><rect class="cls-1" x="67.94" y="206.21" width="104.68" height="20.12" rx="10" ry="10"/></g></svg>