<svg xmlns="http://www.w3.org/2000/svg" viewBox="0 0 387.36 440.56"><defs><style>.cls-1{fill:#171a32;}.cls-2{fill:none;}</style></defs><title>icons</title><g id="Lager_7" data-name="Lager 7"><rect class="cls-1" x="76.29" y="175.23" width="150.16" height="20.12" rx="10" ry="10"/><rect class="cls-1" x="94.45" y="221.14" width="86.53" height="20.12" rx="10" ry="10"/><rect class="cls-1" x="76.29" y="131.31" width="104.68" height="20.12" rx="10" ry="10"/><polygon class="cls-2" points="41.6 170.05 35.68 176.04 41.6 180.03 41.6 170.05"/><polygon class="cls-2" points="61.6 218.16 41.6 204.66 30.62 197.25 29.74 389.41 134.47 267.34 61.6 218.16"/><polygon class="cls-2" points="348.72 176.51 341.06 169.29 341.06 181.75 348.72 176.51"/><polygon class="cls-2" points="321.06 220.17 250.04 268.77 353.79 389.7 353.79 197.76 341.06 206.48 321.06 220.17"/><path class="cls-2" d="M172.09,38l0,0,0,0,0,0Z"/><path class="cls-2" d="M188.81,279.39a8.53,8.53,0,0,0,9.65,0l122.6-83.92v-85.1a2.06,2.06,0,0,0-2-2.06H63.6a2.06,2.06,0,0,0-2,2.06v83.2Z"/><path class="cls-2" d="M203.25,39.42c-.28-.27-.55-.53-.82-.8s-6.88-6.89-15.08-6.89c-8.38,0-14.77,5.79-15.24,6.23h0l0,0L123,87.68H254.47Z"/><path class="cls-2" d="M209.53,296.51a28,28,0,0,1-31.69.11l-26.47-17.87-108,125.92h296.6L233.23,280.28Z"/><path class="cls-1" d="M134.47,267.34,29.74,389.41l0,5.88a9.41,9.41,0,0,0,2.64,6.63l.8.73a8.83,8.83,0,0,0,5.62,2h4.56l108-125.92Z"/><path class="cls-1" d="M233.23,280.28,339.94,404.67h4.78a9.21,9.21,0,0,0,9.07-9.34V389.7L250,268.77Z"/><path d="M172.1,38l0,0,0,0Z"/><path class="cls-1" d="M364.35,163.32l-23.29-21.95v27.92l7.66,7.22,4.32-3,11.07,17.15-10.32,7.07V395.33a9.21,9.21,0,0,1-9.07,9.34H38.78a8.83,8.83,0,0,1-5.62-2l-.8-.73a9.41,9.41,0,0,1-2.64-6.63l0-5.88.88-192.16-12-8.11,11-17.22L35.68,176l5.92-6V141.17l-22.23,22.5a30.57,30.57,0,0,0-8.69,21.2l-1,210.31a30.19,30.19,0,0,0,8.46,21.26,28.46,28.46,0,0,0,20.6,8.82H344.72c16,0,29.07-13.43,29.07-29.93V185.4A30.41,30.41,0,0,0,364.35,163.32Z"/><path class="cls-1" d="M172.06,38l0,0,0,0h0c.47-.44,6.86-6.23,15.24-6.23,8.2,0,14.79,6.59,15.08,6.89s.54.54.82.8l51.21,48.26h29.62L216.76,24.23l-.3-.29c-3-3-13.8-12.81-29.11-12.81-16.64,0-27.9,10.78-29.18,12L94.45,87.68H123Z"/><path class="cls-1" d="M188.81,279.39,61.6,193.53v24.62l72.87,49.18,16.9,11.41,26.47,17.87a28,28,0,0,0,31.69-.11l23.7-16.22L250,268.77l71-48.61V195.44l-122.6,83.92A8.53,8.53,0,0,1,188.81,279.39Z"/><path class="cls-1" d="M341.06,206.48l12.73-8.71V185.4a9.49,9.49,0,0,0-2.95-6.89l-2.13-2-7.66,5.24Z"/><path class="cls-1" d="M41.6,180l-5.92-4-2.29,2.32A9.54,9.54,0,0,0,30.68,185h0l-.06,12.27,11,7.41Z"/><path class="cls-1" d="M30.68,185a9.54,9.54,0,0,1,2.71-6.61L35.68,176l-6.12-4.13-11,17.22,12,8.11L30.68,185Z"/><path class="cls-1" d="M353.79,185.4v12.37l10.32-7.07L353,173.55l-4.32,3,2.13,2A9.49,9.49,0,0,1,353.79,185.4Z"/><path class="cls-1" d="M319.06,108.28a2.06,2.06,0,0,1,2,2.06v12.19l20,18.85v-31c0-12.49-9.87-22.65-22-22.65h-35l21.85,20.59Z"/><polygon class="cls-1" points="254.47 87.68 122.98 87.68 102.63 108.28 276.32 108.28 254.47 87.68"/><path class="cls-1" d="M61.6,110.34a2.06,2.06,0,0,1,2-2.06H74.1L94.45,87.68H63.6c-12.13,0-22,10.16-22,22.65v30.84l20-20.24Z"/><polygon class="cls-1" points="61.6 193.53 61.6 149.81 41.6 170.05 41.6 180.03 61.6 193.53"/><polygon class="cls-1" points="321.06 195.44 341.06 181.75 341.06 169.29 321.06 150.44 321.06 195.44"/><polygon class="cls-1" points="102.63 108.28 122.98 87.68 94.45 87.68 74.1 108.28 102.63 108.28"/><polygon class="cls-1" points="61.6 149.81 61.6 120.93 41.6 141.17 41.6 170.05 61.6 149.81"/><polygon class="cls-1" points="276.32 108.28 305.94 108.28 284.09 87.68 254.47 87.68 276.32 108.28"/><polygon class="cls-1" points="321.06 150.44 341.06 169.29 341.06 141.37 321.06 122.52 321.06 150.44"/><polygon class="cls-1" points="341.06 206.48 341.06 181.75 321.06 195.44 321.06 220.17 341.06 206.48"/><polygon class="cls-1" points="41.6 180.03 41.6 204.66 61.6 218.16 61.6 193.53 41.6 180.03"/></g></svg>