<svg id="Lager_5" data-name="Lager 5" xmlns="http://www.w3.org/2000/svg" viewBox="0 0 387.36 440.56"><defs><style>.cls-1{fill:#171a32;}</style></defs><title>icons</title><path class="cls-1" d="M193.24,431.65a27.28,27.28,0,0,1-18.11-6.84C155.43,407.4,117.36,371,83.76,323.27,41.45,263.11,20,204.77,20,149.87,20,106.31,33.6,71.28,60.44,45.76,109.49-.9,185.71.91,193.29,1.21,200.85.91,277.05-.9,326.1,45.75c26.84,25.53,40.45,60.56,40.45,104.12,0,54.9-21.46,113.25-63.79,173.41-33.61,47.77-71.7,84.12-91.41,101.54A27.29,27.29,0,0,1,193.24,431.65ZM188.79,21.14c-16,0-76.13,2.55-114.57,39.11C51.51,81.85,40,112,40,149.87c0,119.52,113.58,229.19,148.38,260a7.35,7.35,0,0,0,9.72,0c34.82-30.77,148.44-140.44,148.44-260,0-37.87-11.52-68-34.23-89.63C267.91,18,194.52,21.17,193.79,21.21l-.5,0-.5,0C192.69,21.2,191.27,21.14,188.79,21.14Zm4.43,219a78.76,78.76,0,0,1-78.67-81.33A78.86,78.86,0,0,1,190.7,82.63,78.76,78.76,0,0,1,272,163.92a78.86,78.86,0,0,1-76.15,76.15h0Q194.53,240.11,193.22,240.11Zm.07-137.52q-1,0-2,0a58.76,58.76,0,0,0,3.86,117.46h0A58.76,58.76,0,0,0,234.82,119.8,58.21,58.21,0,0,0,193.29,102.59Z"/></svg>