<svg id="Lager_3" data-name="Lager 3" xmlns="http://www.w3.org/2000/svg" viewBox="0 0 317 481.85"><defs><style>.cls-1,.cls-2{fill:none;stroke-miterlimit:10;stroke-width:20px;}.cls-1{stroke:#1d1d1b;}.cls-2{stroke:#fff;}</style></defs><title>pin</title><path class="cls-1" d="M26.5,166.75" transform="translate(-16.48 -13.3)"/><path class="cls-2" d="M323.47,171.79a148.48,148.48,0,0,0-297,0c0,1.47,0,2.94,0,4.4,0,0,0,2.25.41,6.64A148.19,148.19,0,0,0,30.7,207c9.58,45.94,41,141.24,144.28,272,103.25-130.8,134.7-226.11,144.28-272a148.19,148.19,0,0,0,3.8-24.14c.41-4.39.41-6.64.41-6.64C323.51,174.72,323.47,173.26,323.47,171.79ZM175,231.1a65.6,65.6,0,1,1,65.6-65.6A65.6,65.6,0,0,1,175,231.1Z" transform="translate(-16.48 -13.3)"/></svg>