<svg xmlns="http://www.w3.org/2000/svg" viewBox="0 0 387.36 440.56"><defs><style>.cls-1{fill:#171a32;}</style></defs><title>icons</title><g id="Lager_8" data-name="Lager 8"><path class="cls-1" d="M251.87,439.93c-7.5,0-15.6-3-23.58-6.66l-.65-.33-34-18.88L159.4,433.12l-.33.15c-14.68,6.73-29.78,11.25-40.76-1.09-5.94-6.68-6.87-13.35-6.6-17.76.59-9.75,7.34-16.29,8.63-17.47l37.58-34.47L157,262.05l-18.59,6.6c-.41,5.93-1.93,13.72-6.67,19.19a18,18,0,0,1-13.57,6.38h-.42c-8.83,0-15.43-5.43-19.42-12.4L63.29,295c-3.38,1.19-33.53,11.15-51.39-3.36-6.66-5.42-10-11.59-9.89-18.33.17-11.15,9.79-18.48,15-22.42C39.14,234,131.45,179,154,165.61V52.85l0-.43a98.44,98.44,0,0,1,5.79-24.52c7-18,19-27.9,33.81-27.9s26.82,9.91,33.81,27.9a98.49,98.49,0,0,1,5.79,24.52l0,.87V165.61C255.91,179,348.22,234,370.4,250.92c5.17,3.94,14.79,11.28,15,22.42.1,6.75-3.23,12.91-9.89,18.33-17.86,14.52-48,4.55-51.39,3.36l-.21-.07L289,281.82c-4,7-10.59,12.4-19.42,12.4h-.42a18,18,0,0,1-13.57-6.38c-4.73-5.47-6.26-13.26-6.67-19.19l-18.59-6.6-.87,100.42L267,396.94c1.29,1.17,8,7.71,8.63,17.47.27,4.42-.66,11.08-6.6,17.76A21.93,21.93,0,0,1,251.87,439.93ZM236.4,415.2c15.38,7,17.58,4.53,18.53,3.47.74-.83,1.61-2,1.55-3a7.38,7.38,0,0,0-2-3.61l-.17-.15-44.17-40.52,1.19-137.11,57.41,20.38-.67,7.78c-.35,4.43.44,10.16,1.6,11.87,2.47-.24,4.22-6.19,4.37-7l2.12-11.49,54.15,20.41c6.12,2.1,25.07,6.48,33.29-.2a11.51,11.51,0,0,0,2.4-2.46c-.5-.94-2.1-2.86-7-6.59-23.9-18.23-138.91-86.24-140.07-86.92l-4.85-2.87V53.82c-.41-3.57-4.39-33.9-20.42-33.9s-20,30.38-20.42,33.91V177.17L168.41,180c-1.16.69-116.17,68.7-140.07,86.92-4.89,3.73-6.49,5.65-7,6.59a11.51,11.51,0,0,0,2.4,2.46c8.21,6.67,27.15,2.3,33.29.2l54.15-20.41,2.12,11.49c.2,1,1.92,6.78,4.37,7,1.17-1.72,2-7.54,1.6-11.87l-.67-7.78L176,234.27l1.19,137.11L133,412a7.14,7.14,0,0,0-2.07,3.72,5.13,5.13,0,0,0,1.56,3c.94,1.06,3.14,3.53,18.53-3.47l42.72-23.74Zm33-140.91h0Zm-151.44,0Z"/></g></svg>